<svg width="39" height="39" viewBox="0 0 39 39" fill="none" xmlns="http://www.w3.org/2000/svg">
<path d="M27.086 12.9752C26.7631 12.0593 26.1736 11.2608 25.3931 10.6827C24.6127 10.1047 23.6771 9.77334 22.7068 9.73145H16.2192C14.9288 9.73145 13.6911 10.2441 12.7786 11.1566C11.8662 12.0691 11.3535 13.3067 11.3535 14.5971C11.3535 15.8876 11.8662 17.1252 12.7786 18.0377C13.6911 18.9502 14.9288 19.4629 16.2192 19.4629H22.7068C23.9973 19.4629 25.2349 19.9755 26.1474 20.888C27.0599 21.8005 27.5725 23.0381 27.5725 24.3286C27.5725 25.619 27.0599 26.8566 26.1474 27.7691C25.2349 28.6816 23.9973 29.1943 22.7068 29.1943H16.2192C15.2489 29.1524 14.3133 28.821 13.5329 28.243C12.7525 27.6649 12.1629 26.8664 11.8401 25.9505" stroke="black" stroke-width="2.59504" stroke-linecap="round" stroke-linejoin="round"/>
<path d="M19.4626 4.86572V9.73143M19.4626 29.1942V34.0599" stroke="black" stroke-width="2.59504" stroke-linecap="round" stroke-linejoin="round"/>
</svg>
