<svg width="39" height="39" viewBox="0 0 39 39" fill="none" xmlns="http://www.w3.org/2000/svg">
<path d="M8.1097 11.6778C8.1097 10.7314 8.48563 9.82384 9.15479 9.15467C9.82396 8.48551 10.7315 8.10958 11.6779 8.10958H13.2998C14.2419 8.10904 15.1456 7.73589 15.8137 7.07156L16.9491 5.93623C17.2806 5.60277 17.6749 5.33814 18.1091 5.15757C18.5433 4.97699 19.009 4.88403 19.4792 4.88403C19.9495 4.88403 20.4151 4.97699 20.8493 5.15757C21.2836 5.33814 21.6778 5.60277 22.0094 5.93623L23.1447 7.07156C23.8129 7.73654 24.718 8.10958 25.6587 8.10958H27.2806C28.2269 8.10958 29.1345 8.48551 29.8037 9.15467C30.4728 9.82384 30.8487 10.7314 30.8487 11.6778V13.2997C30.8487 14.2404 31.2218 15.1454 31.8868 15.8136L33.0221 16.9489C33.3556 17.2805 33.6202 17.6748 33.8008 18.109C33.9813 18.5432 34.0743 19.0088 34.0743 19.4791C34.0743 19.9494 33.9813 20.415 33.8008 20.8492C33.6202 21.2834 33.3556 21.6777 33.0221 22.0093L31.8868 23.1446C31.2224 23.8127 30.8493 24.7164 30.8487 25.6585V27.2804C30.8487 28.2268 30.4728 29.1344 29.8037 29.8035C29.1345 30.4727 28.2269 30.8486 27.2806 30.8486H25.6587C24.7165 30.8492 23.8128 31.2223 23.1447 31.8866L22.0094 33.022C21.6778 33.3554 21.2836 33.6201 20.8493 33.8006C20.4151 33.9812 19.9495 34.0742 19.4792 34.0742C19.009 34.0742 18.5433 33.9812 18.1091 33.8006C17.6749 33.6201 17.2806 33.3554 16.9491 33.022L15.8137 31.8866C15.1456 31.2223 14.2419 30.8492 13.2998 30.8486H11.6779C10.7315 30.8486 9.82396 30.4727 9.15479 29.8035C8.48563 29.1344 8.1097 28.2268 8.1097 27.2804V25.6585C8.10916 24.7164 7.73602 23.8127 7.07168 23.1446L5.93635 22.0093C5.60289 21.6777 5.33826 21.2834 5.15769 20.8492C4.97711 20.415 4.88416 19.9494 4.88416 19.4791C4.88416 19.0088 4.97711 18.5432 5.15769 18.109C5.33826 17.6748 5.60289 17.2805 5.93635 16.9489L7.07168 15.8136C7.73602 15.1455 8.10916 14.2418 8.1097 13.2997V11.6778Z" stroke="black" stroke-width="2.59504" stroke-linecap="round" stroke-linejoin="round"/>
<path d="M14.5972 19.4628L17.841 22.7066L24.3286 16.219" stroke="black" stroke-width="2.59504" stroke-linecap="round" stroke-linejoin="round"/>
</svg>
