<svg width="28" height="32" viewBox="0 0 28 32" fill="none" xmlns="http://www.w3.org/2000/svg">
<path d="M13.624 1.29761C16.8277 4.5749 21.0091 6.28127 25.2823 6.05518C25.9044 8.50219 26.0948 11.0688 25.842 13.6026C25.5893 16.1363 24.8987 18.5855 23.8111 20.8045C22.7236 23.0235 21.2614 24.9672 19.5113 26.5199C17.7613 28.0726 15.7592 29.2027 13.624 29.8431C11.4887 29.2027 9.48661 28.0726 7.73658 26.5199C5.98655 24.9672 4.52433 23.0235 3.43679 20.8045C2.34926 18.5855 1.65861 16.1363 1.40589 13.6026C1.15317 11.0688 1.34353 8.50219 1.96566 6.05518C6.23881 6.28127 10.4202 4.5749 13.624 1.29761Z" stroke="black" stroke-width="2.59504" stroke-linecap="round" stroke-linejoin="round"/>
</svg>
