<svg width="39" height="39" viewBox="0 0 39 39" fill="none" xmlns="http://www.w3.org/2000/svg">
<path d="M19.4623 34.0599C15.5909 34.0599 11.8781 32.522 9.14063 29.7845C6.40314 27.0471 4.86523 23.3342 4.86523 19.4628C4.86523 15.5914 6.40314 11.8786 9.14063 9.14112C11.8781 6.40363 15.5909 4.86572 19.4623 4.86572C27.5232 4.86572 34.0595 10.6754 34.0595 17.8409C34.0595 19.5601 33.2907 21.2112 31.9218 22.4277C30.5529 23.6441 28.6958 24.3285 26.7609 24.3285H22.7061C21.9825 24.3169 21.2758 24.5475 20.6984 24.9838C20.121 25.42 19.7061 26.0369 19.5196 26.7361C19.3331 27.4354 19.3859 28.1769 19.6694 28.8427C19.9529 29.5086 20.4509 30.0605 21.0842 30.4107C21.4081 30.7095 21.6302 31.1022 21.7193 31.5338C21.8084 31.9653 21.7601 32.4139 21.5811 32.8166C21.4022 33.2192 21.1016 33.5557 20.7215 33.7787C20.3415 34.0017 19.9011 34.1001 19.4623 34.0599Z" stroke="black" stroke-width="2.59504" stroke-linecap="round" stroke-linejoin="round"/>
<path d="M12.1641 17.0299C12.1641 17.46 12.335 17.8726 12.6392 18.1767C12.9433 18.4809 13.3559 18.6518 13.786 18.6518C14.2162 18.6518 14.6287 18.4809 14.9329 18.1767C15.237 17.8726 15.4079 17.46 15.4079 17.0299C15.4079 16.5997 15.237 16.1872 14.9329 15.883C14.6287 15.5788 14.2162 15.408 13.786 15.408C13.3559 15.408 12.9433 15.5788 12.6392 15.883C12.335 16.1872 12.1641 16.5997 12.1641 17.0299Z" stroke="black" stroke-width="1.29752" stroke-linecap="round" stroke-linejoin="round"/>
<path d="M18.6514 12.1639C18.6514 12.594 18.8222 13.0066 19.1264 13.3107C19.4306 13.6149 19.8431 13.7858 20.2733 13.7858C20.7034 13.7858 21.116 13.6149 21.4201 13.3107C21.7243 13.0066 21.8952 12.594 21.8952 12.1639C21.8952 11.7337 21.7243 11.3212 21.4201 11.017C21.116 10.7129 20.7034 10.542 20.2733 10.542C19.8431 10.542 19.4306 10.7129 19.1264 11.017C18.8222 11.3212 18.6514 11.7337 18.6514 12.1639Z" stroke="black" stroke-width="1.29752" stroke-linecap="round" stroke-linejoin="round"/>
<path d="M25.1396 17.0296C25.1396 17.4598 25.3105 17.8723 25.6147 18.1765C25.9189 18.4806 26.3314 18.6515 26.7615 18.6515C27.1917 18.6515 27.6042 18.4806 27.9084 18.1765C28.2126 17.8723 28.3835 17.4598 28.3835 17.0296C28.3835 16.5995 28.2126 16.1869 27.9084 15.8828C27.6042 15.5786 27.1917 15.4077 26.7615 15.4077C26.3314 15.4077 25.9189 15.5786 25.6147 15.8828C25.3105 16.1869 25.1396 16.5995 25.1396 17.0296Z" stroke="black" stroke-width="1.29752" stroke-linecap="round" stroke-linejoin="round"/>
</svg>
