<svg width="39" height="39" viewBox="0 0 39 39" fill="none" xmlns="http://www.w3.org/2000/svg">
<path d="M33.9626 21.1575C34.3061 18.219 33.7486 15.2456 32.364 12.6311C30.9795 10.0166 28.8332 7.8846 26.2095 6.51749C23.5859 5.15039 20.6088 4.61275 17.6727 4.97584C14.7366 5.33893 11.9801 6.58559 9.76858 8.55064C7.55701 10.5157 5.99473 13.1063 5.28876 15.9793C4.58279 18.8523 4.76646 21.872 5.81543 24.6382C6.8644 27.4045 8.72914 29.7867 11.1626 31.4692C13.596 33.1517 16.4832 34.0551 19.4417 34.0597" stroke="black" stroke-width="2.59504" stroke-linecap="round" stroke-linejoin="round"/>
<path d="M5.83887 14.5969H33.0868" stroke="black" stroke-width="2.59504" stroke-linecap="round" stroke-linejoin="round"/>
<path d="M5.83887 24.3284H21.0847" stroke="black" stroke-width="2.59504" stroke-linecap="round" stroke-linejoin="round"/>
<path d="M18.652 4.86548C15.9196 9.24398 14.4711 14.3015 14.4711 19.4626C14.4711 24.6237 15.9196 29.6812 18.652 34.0597" stroke="black" stroke-width="2.59504" stroke-linecap="round" stroke-linejoin="round"/>
<path d="M20.2738 4.86548C23.3865 9.85096 24.8237 15.701 24.3756 21.5613" stroke="black" stroke-width="2.59504" stroke-linecap="round" stroke-linejoin="round"/>
<path d="M25.9504 35.6815L34.0599 27.572" stroke="black" stroke-width="2.59504" stroke-linecap="round" stroke-linejoin="round"/>
<path d="M34.06 34.8706V27.572H26.7615" stroke="black" stroke-width="2.59504" stroke-linecap="round" stroke-linejoin="round"/>
</svg>
