<svg width="86" height="82" viewBox="0 0 86 82" fill="none" xmlns="http://www.w3.org/2000/svg">
<g clip-path="url(#clip0_38_730)">
<path d="M62.595 25.038L60.8382 36.2288C59.9928 41.6152 55.7673 45.8407 50.3809 46.6867L39.1899 48.4434L50.3809 50.2001C55.7673 51.0454 59.9928 55.2709 60.8382 60.6573L62.595 71.8481L64.3517 60.6573C65.197 55.2709 69.4225 51.0454 74.809 50.2001L86 48.4434L74.809 46.6867C69.4225 45.8413 65.197 41.6159 64.3517 36.2288L62.595 25.038Z" fill="#1E7E51" fill-opacity="0.34"/>
<path d="M9.79749 0L9.06209 4.68454C8.70822 6.9393 6.9394 8.70811 4.68461 9.06225L0 9.7976L4.68461 10.533C6.9394 10.8868 8.70822 12.6556 9.06209 14.9104L9.79749 19.5949L10.5328 14.9104C10.8867 12.6556 12.6555 10.8868 14.9103 10.533L19.5949 9.7976L14.9103 9.06225C12.6555 8.70838 10.8867 6.93958 10.5328 4.68454L9.79749 0Z" fill="#1E7E51" fill-opacity="0.34"/>
<path d="M21.7723 62.0506L21.0369 66.7352C20.683 68.9899 18.9142 70.7587 16.6594 71.1129L11.9748 71.8482L16.6594 72.5836C18.9142 72.9375 20.683 74.7063 21.0369 76.961L21.7723 81.6456L22.5076 76.961C22.8615 74.7063 24.6303 72.9375 26.8851 72.5836L31.5697 71.8482L26.8851 71.1129C24.6303 70.759 22.8615 68.9902 22.5076 66.7352L21.7723 62.0506Z" fill="#1E7E51" fill-opacity="0.34"/>
</g>
<defs>
<clipPath id="clip0_38_730">
<rect width="86" height="82" fill="white"/>
</clipPath>
</defs>
</svg>
